<svg xmlns="http://www.w3.org/2000/svg" width="400" height="900"><path d="M276,454L286,431L244,373Z" fill="#8b8b8b" stroke="#8b8b8b" stroke-width="1.51"/><path d="M244,373L188,462L276,454Z" fill="#909090" stroke="#909090" stroke-width="1.51"/><path d="M180,397L188,462L244,373Z" fill="#9a9a9a" stroke="#9a9a9a" stroke-width="1.51"/><path d="M180,397L151,416L188,462Z" fill="#a0a0a0" stroke="#a0a0a0" stroke-width="1.51"/><path d="M244,373L193,339L180,397Z" fill="#a0a0a0" stroke="#a0a0a0" stroke-width="1.51"/><path d="M180,397L102,322L151,416Z" fill="#adadad" stroke="#adadad" stroke-width="1.51"/><path d="M286,431L325,343L244,373Z" fill="#8c8c8c" stroke="#8c8c8c" stroke-width="1.51"/><path d="M244,373L207,256L193,339Z" fill="#a4a4a4" stroke="#a4a4a4" stroke-width="1.51"/><path d="M365,407L325,343L286,431Z" fill="#828282" stroke="#828282" stroke-width="1.51"/><path d="M373,484L365,407L286,431Z" fill="#787878" stroke="#787878" stroke-width="1.51"/><path d="M188,462L275,548L276,454Z" fill="#878787" stroke="#878787" stroke-width="1.51"/><path d="M276,454L373,484L286,431Z" fill="#7d7d7d" stroke="#7d7d7d" stroke-width="1.51"/><path d="M188,462L194,552L275,548Z" fill="#898989" stroke="#898989" stroke-width="1.51"/><path d="M101,503L194,552L188,462Z" fill="#989898" stroke="#989898" stroke-width="1.51"/><path d="M275,548L373,484L276,454Z" fill="#797979" stroke="#797979" stroke-width="1.51"/><path d="M151,416L101,503L188,462Z" fill="#a1a1a1" stroke="#a1a1a1" stroke-width="1.51"/><path d="M76,471L101,503L151,416Z" fill="#a9a9a9" stroke="#a9a9a9" stroke-width="1.51"/><path d="M50,418L76,471L151,416Z" fill="#b0b0b0" stroke="#b0b0b0" stroke-width="1.51"/><path d="M275,548L316,570L373,484Z" fill="#717171" stroke="#717171" stroke-width="1.51"/><path d="M258,655L316,570L275,548Z" fill="#737373" stroke="#737373" stroke-width="1.51"/><path d="M193,339L102,322L180,397Z" fill="#adadad" stroke="#adadad" stroke-width="1.51"/><path d="M207,256L102,322L193,339Z" fill="#b1b1b1" stroke="#b1b1b1" stroke-width="1.51"/><path d="M273,239L207,256L244,373Z" fill="#a1a1a1" stroke="#a1a1a1" stroke-width="1.51"/><path d="M102,322L50,418L151,416Z" fill="#b5b5b5" stroke="#b5b5b5" stroke-width="1.51"/><path d="M325,343L273,239L244,373Z" fill="#969696" stroke="#969696" stroke-width="1.51"/><path d="M321,240L273,239L325,343Z" fill="#959595" stroke="#959595" stroke-width="1.51"/><path d="M365,407L415,362L325,343Z" fill="#7b7b7b" stroke="#7b7b7b" stroke-width="1.51"/><path d="M431,428L415,362L365,407Z" fill="#6d6d6d" stroke="#6d6d6d" stroke-width="1.51"/><path d="M101,503L109,570L194,552Z" fill="#9a9a9a" stroke="#9a9a9a" stroke-width="1.51"/><path d="M194,552L199,625L275,548Z" fill="#828282" stroke="#828282" stroke-width="1.51"/><path d="M33,540L109,570L101,503Z" fill="#a5a5a5" stroke="#a5a5a5" stroke-width="1.51"/><path d="M33,540L101,503L76,471Z" fill="#ababab" stroke="#ababab" stroke-width="1.51"/><path d="M373,484L431,428L365,407Z" fill="#6c6c6c" stroke="#6c6c6c" stroke-width="1.51"/><path d="M447,471L431,428L373,484Z" fill="#616161" stroke="#616161" stroke-width="1.51"/><path d="M437,244L321,240L325,343Z" fill="#898989" stroke="#898989" stroke-width="1.51"/><path d="M134,610L199,625L194,552Z" fill="#8a8a8a" stroke="#8a8a8a" stroke-width="1.51"/><path d="M109,570L134,610L194,552Z" fill="#939393" stroke="#939393" stroke-width="1.51"/><path d="M102,322L27,367L50,418Z" fill="#bebebe" stroke="#bebebe" stroke-width="1.51"/><path d="M207,256L100,258L102,322Z" fill="#bbbbbb" stroke="#bbbbbb" stroke-width="1.51"/><path d="M79,228L100,258L110,186Z" fill="#c9c9c9" stroke="#c9c9c9" stroke-width="1.51"/><path d="M439,563L447,471L373,484Z" fill="#5b5b5b" stroke="#5b5b5b" stroke-width="1.51"/><path d="M508,279L437,244L415,362Z" fill="#6b6b6b" stroke="#6b6b6b" stroke-width="1.51"/><path d="M50,418L-13,480L76,471Z" fill="#b6b6b6" stroke="#b6b6b6" stroke-width="1.51"/><path d="M14,362L27,367L25,255Z" fill="#cacaca" stroke="#cacaca" stroke-width="1.51"/><path d="M27,367L10,413L50,418Z" fill="#bfbfbf" stroke="#bfbfbf" stroke-width="1.51"/><path d="M109,570L32,611L134,610Z" fill="#9b9b9b" stroke="#9b9b9b" stroke-width="1.51"/><path d="M27,367L14,362L10,413Z" fill="#c4c4c4" stroke="#c4c4c4" stroke-width="1.51"/><path d="M25,255L27,367L102,322Z" fill="#c7c7c7" stroke="#c7c7c7" stroke-width="1.51"/><path d="M272,690L258,655L186,733Z" fill="#707070" stroke="#707070" stroke-width="1.51"/><path d="M199,625L258,655L275,548Z" fill="#797979" stroke="#797979" stroke-width="1.51"/><path d="M316,570L439,563L373,484Z" fill="#646464" stroke="#646464" stroke-width="1.51"/><path d="M-13,480L33,540L76,471Z" fill="#b2b2b2" stroke="#b2b2b2" stroke-width="1.51"/><path d="M273,239L187,167L207,256Z" fill="#acacac" stroke="#acacac" stroke-width="1.51"/><path d="M321,240L284,193L273,239Z" fill="#9c9c9c" stroke="#9c9c9c" stroke-width="1.51"/><path d="M363,660L439,563L316,570Z" fill="#5f5f5f" stroke="#5f5f5f" stroke-width="1.51"/><path d="M100,258L25,255L102,322Z" fill="#c7c7c7" stroke="#c7c7c7" stroke-width="1.51"/><path d="M110,186L100,258L207,256Z" fill="#bfbfbf" stroke="#bfbfbf" stroke-width="1.51"/><path d="M439,563L473,506L447,471Z" fill="#515151" stroke="#515151" stroke-width="1.51"/><path d="M447,471L506,434L431,428Z" fill="#575757" stroke="#575757" stroke-width="1.51"/><path d="M10,413L-13,480L50,418Z" fill="#bbbbbb" stroke="#bbbbbb" stroke-width="1.51"/><path d="M-64,463L-13,480L10,413Z" fill="#bfbfbf" stroke="#bfbfbf" stroke-width="1.51"/><path d="M284,193L187,167L273,239Z" fill="#a9a9a9" stroke="#a9a9a9" stroke-width="1.51"/><path d="M258,655L329,672L316,570Z" fill="#6a6a6a" stroke="#6a6a6a" stroke-width="1.51"/><path d="M187,167L110,186L207,256Z" fill="#bbbbbb" stroke="#bbbbbb" stroke-width="1.51"/><path d="M329,672L363,660L316,570Z" fill="#636363" stroke="#636363" stroke-width="1.51"/><path d="M321,240L356,175L284,193Z" fill="#989898" stroke="#989898" stroke-width="1.51"/><path d="M415,362L437,244L325,343Z" fill="#7b7b7b" stroke="#7b7b7b" stroke-width="1.51"/><path d="M513,342L415,362L431,428Z" fill="#616161" stroke="#616161" stroke-width="1.51"/><path d="M258,655L272,690L329,672Z" fill="#696969" stroke="#696969" stroke-width="1.51"/><path d="M186,733L258,655L199,625Z" fill="#787878" stroke="#787878" stroke-width="1.51"/><path d="M79,228L25,255L100,258Z" fill="#cbcbcb" stroke="#cbcbcb" stroke-width="1.51"/><path d="M-69,404L-64,463L10,413Z" fill="#c5c5c5" stroke="#c5c5c5" stroke-width="1.51"/><path d="M-39,195L25,255L-11,138Z" fill="#dcdcdc" stroke="#dcdcdc" stroke-width="1.51"/><path d="M473,506L506,434L447,471Z" fill="#515151" stroke="#515151" stroke-width="1.51"/><path d="M429,223L356,175L321,240Z" fill="#8c8c8c" stroke="#8c8c8c" stroke-width="1.51"/><path d="M284,193L203,116L187,167Z" fill="#b1b1b1" stroke="#b1b1b1" stroke-width="1.51"/><path d="M33,540L32,611L109,570Z" fill="#a4a4a4" stroke="#a4a4a4" stroke-width="1.51"/><path d="M103,713L186,733L199,625Z" fill="#828282" stroke="#828282" stroke-width="1.51"/><path d="M-40,574L32,611L33,540Z" fill="#ababab" stroke="#ababab" stroke-width="1.51"/><path d="M437,244L429,223L321,240Z" fill="#818181" stroke="#818181" stroke-width="1.51"/><path d="M506,434L513,342L431,428Z" fill="#575757" stroke="#575757" stroke-width="1.51"/><path d="M437,244L457,223L429,223Z" fill="#737373" stroke="#737373" stroke-width="1.51"/><path d="M410,146L337,148L356,175Z" fill="#919191" stroke="#919191" stroke-width="1.51"/><path d="M356,175L337,148L284,193Z" fill="#9a9a9a" stroke="#9a9a9a" stroke-width="1.51"/><path d="M456,670L444,634L442,688Z" fill="#424242" stroke="#424242" stroke-width="1.51"/><path d="M363,660L444,634L439,563Z" fill="#505050" stroke="#505050" stroke-width="1.51"/><path d="M439,563L510,581L473,506Z" fill="#494949" stroke="#494949" stroke-width="1.51"/><path d="M565,505L560,438L506,434Z" fill="#484848" stroke="#484848" stroke-width="1.51"/><path d="M25,255L-30,291L14,362Z" fill="#d0d0d0" stroke="#d0d0d0" stroke-width="1.51"/><path d="M-39,195L-30,291L25,255Z" fill="#d8d8d8" stroke="#d8d8d8" stroke-width="1.51"/><path d="M429,223L410,146L356,175Z" fill="#858585" stroke="#858585" stroke-width="1.51"/><path d="M508,279L457,223L437,244Z" fill="#6c6c6c" stroke="#6c6c6c" stroke-width="1.51"/><path d="M-11,138L25,255L79,228Z" fill="#d5d5d5" stroke="#d5d5d5" stroke-width="1.51"/><path d="M187,167L122,147L110,186Z" fill="#c5c5c5" stroke="#c5c5c5" stroke-width="1.51"/><path d="M203,116L122,147L187,167Z" fill="#c0c0c0" stroke="#c0c0c0" stroke-width="1.51"/><path d="M337,148L291,126L284,193Z" fill="#a0a0a0" stroke="#a0a0a0" stroke-width="1.51"/><path d="M-13,480L-40,574L33,540Z" fill="#b3b3b3" stroke="#b3b3b3" stroke-width="1.51"/><path d="M-69,404L10,413L14,362Z" fill="#c6c6c6" stroke="#c6c6c6" stroke-width="1.51"/><path d="M-79,318L-69,404L14,362Z" fill="#cfcfcf" stroke="#cfcfcf" stroke-width="1.51"/><path d="M513,342L508,279L415,362Z" fill="#616161" stroke="#616161" stroke-width="1.51"/><path d="M291,126L203,116L284,193Z" fill="#ababab" stroke="#ababab" stroke-width="1.51"/><path d="M444,634L483,611L439,563Z" fill="#474747" stroke="#474747" stroke-width="1.51"/><path d="M103,713L199,625L134,610Z" fill="#8a8a8a" stroke="#8a8a8a" stroke-width="1.51"/><path d="M442,688L363,660L422,791Z" fill="#474747" stroke="#474747" stroke-width="1.51"/><path d="M442,688L444,634L363,660Z" fill="#4b4b4b" stroke="#4b4b4b" stroke-width="1.51"/><path d="M42,685L103,713L134,610Z" fill="#929292" stroke="#929292" stroke-width="1.51"/><path d="M-64,463L-40,574L-13,480Z" fill="#bababa" stroke="#bababa" stroke-width="1.51"/><path d="M483,611L510,581L439,563Z" fill="#444444" stroke="#444444" stroke-width="1.51"/><path d="M560,438L538,313L513,342Z" fill="#535353" stroke="#535353" stroke-width="1.51"/><path d="M42,685L134,610L32,611Z" fill="#9a9a9a" stroke="#9a9a9a" stroke-width="1.51"/><path d="M513,342L538,313L508,279Z" fill="#5a5a5a" stroke="#5a5a5a" stroke-width="1.51"/><path d="M560,438L513,342L506,434Z" fill="#4e4e4e" stroke="#4e4e4e" stroke-width="1.51"/><path d="M565,505L506,434L473,506Z" fill="#484848" stroke="#484848" stroke-width="1.51"/><path d="M-32,653L42,685L32,611Z" fill="#a1a1a1" stroke="#a1a1a1" stroke-width="1.51"/><path d="M337,148L334,55L291,126Z" fill="#a0a0a0" stroke="#a0a0a0" stroke-width="1.51"/><path d="M457,223L410,146L429,223Z" fill="#797979" stroke="#797979" stroke-width="1.51"/><path d="M499,150L410,146L457,223Z" fill="#757575" stroke="#757575" stroke-width="1.51"/><path d="M551,238L457,223L508,279Z" fill="#636363" stroke="#636363" stroke-width="1.51"/><path d="M444,634L456,670L483,611Z" fill="#424242" stroke="#424242" stroke-width="1.51"/><path d="M483,611L543,629L510,581Z" fill="#3b3b3b" stroke="#3b3b3b" stroke-width="1.51"/><path d="M363,660L329,672L329,788Z" fill="#5a5a5a" stroke="#5a5a5a" stroke-width="1.51"/><path d="M186,733L252,768L272,690Z" fill="#6c6c6c" stroke="#6c6c6c" stroke-width="1.51"/><path d="M142,753L192,752L186,733Z" fill="#787878" stroke="#787878" stroke-width="1.51"/><path d="M-69,404L-82,581L-64,463Z" fill="#c0c0c0" stroke="#c0c0c0" stroke-width="1.51"/><path d="M-30,291L-79,318L14,362Z" fill="#d2d2d2" stroke="#d2d2d2" stroke-width="1.51"/><path d="M-96,288L-79,318L-30,291Z" fill="#d9d9d9" stroke="#d9d9d9" stroke-width="1.51"/><path d="M329,788L329,672L272,690Z" fill="#5f5f5f" stroke="#5f5f5f" stroke-width="1.51"/><path d="M567,547L565,505L473,506Z" fill="#424242" stroke="#424242" stroke-width="1.51"/><path d="M567,547L473,506L510,581Z" fill="#404040" stroke="#404040" stroke-width="1.51"/><path d="M84,799L142,753L103,713Z" fill="#848484" stroke="#848484" stroke-width="1.51"/><path d="M103,713L142,753L186,733Z" fill="#808080" stroke="#808080" stroke-width="1.51"/><path d="M271,835L252,768L172,837Z" fill="#606060" stroke="#606060" stroke-width="1.51"/><path d="M192,752L252,768L186,733Z" fill="#6f6f6f" stroke="#6f6f6f" stroke-width="1.51"/><path d="M42,685L84,799L103,713Z" fill="#8d8d8d" stroke="#8d8d8d" stroke-width="1.51"/><path d="M-40,574L-32,653L32,611Z" fill="#a9a9a9" stroke="#a9a9a9" stroke-width="1.51"/><path d="M-82,581L-32,653L-40,574Z" fill="#afafaf" stroke="#afafaf" stroke-width="1.51"/><path d="M543,629L483,611L456,670Z" fill="#3b3b3b" stroke="#3b3b3b" stroke-width="1.51"/><path d="M543,629L567,547L510,581Z" fill="#3a3a3a" stroke="#3a3a3a" stroke-width="1.51"/><path d="M-96,288L-82,581L-69,404Z" fill="#c9c9c9" stroke="#c9c9c9" stroke-width="1.51"/><path d="M-64,463L-82,581L-40,574Z" fill="#b8b8b8" stroke="#b8b8b8" stroke-width="1.51"/><path d="M45,109L79,228L110,186Z" fill="#d0d0d0" stroke="#d0d0d0" stroke-width="1.51"/><path d="M45,109L110,186L122,147Z" fill="#d0d0d0" stroke="#d0d0d0" stroke-width="1.51"/><path d="M-79,318L-96,288L-69,404Z" fill="#d6d6d6" stroke="#d6d6d6" stroke-width="1.51"/><path d="M-76,212L-96,288L-30,291Z" fill="#dcdcdc" stroke="#dcdcdc" stroke-width="1.51"/><path d="M538,313L551,238L508,279Z" fill="#5d5d5d" stroke="#5d5d5d" stroke-width="1.51"/><path d="M560,438L551,238L538,313Z" fill="#575757" stroke="#575757" stroke-width="1.51"/><path d="M577,178L551,238L560,438Z" fill="#5c5c5c" stroke="#5c5c5c" stroke-width="1.51"/><path d="M172,56L45,109L122,147Z" fill="#d0d0d0" stroke="#d0d0d0" stroke-width="1.51"/><path d="M579,684L543,629L456,670Z" fill="#323232" stroke="#323232" stroke-width="1.51"/><path d="M203,116L172,56L122,147Z" fill="#c4c4c4" stroke="#c4c4c4" stroke-width="1.51"/><path d="M258,42L172,56L203,116Z" fill="#bbbbbb" stroke="#bbbbbb" stroke-width="1.51"/><path d="M258,42L203,116L291,126Z" fill="#b1b1b1" stroke="#b1b1b1" stroke-width="1.51"/><path d="M-39,195L-76,212L-30,291Z" fill="#dedede" stroke="#dedede" stroke-width="1.51"/><path d="M-58,151L-76,212L-39,195Z" fill="#e3e3e3" stroke="#e3e3e3" stroke-width="1.51"/><path d="M252,768L329,788L272,690Z" fill="#606060" stroke="#606060" stroke-width="1.51"/><path d="M442,688L513,751L456,670Z" fill="#393939" stroke="#393939" stroke-width="1.51"/><path d="M271,835L329,788L252,768Z" fill="#585858" stroke="#585858" stroke-width="1.51"/><path d="M45,109L-11,138L79,228Z" fill="#d9d9d9" stroke="#d9d9d9" stroke-width="1.51"/><path d="M393,60L334,55L337,148Z" fill="#9a9a9a" stroke="#9a9a9a" stroke-width="1.51"/><path d="M551,238L499,150L457,223Z" fill="#686868" stroke="#686868" stroke-width="1.51"/><path d="M393,60L337,148L410,146Z" fill="#909090" stroke="#909090" stroke-width="1.51"/><path d="M334,55L258,42L291,126Z" fill="#a8a8a8" stroke="#a8a8a8" stroke-width="1.51"/><path d="M458,43L393,60L410,146Z" fill="#858585" stroke="#858585" stroke-width="1.51"/><path d="M334,55L337,-9L258,42Z" fill="#a8a8a8" stroke="#a8a8a8" stroke-width="1.51"/><path d="M-11,138L-58,151L-39,195Z" fill="#e3e3e3" stroke="#e3e3e3" stroke-width="1.51"/><path d="M-97,29L-58,151L-11,138Z" fill="#eaeaea" stroke="#eaeaea" stroke-width="1.51"/><path d="M7,29L-11,138L45,109Z" fill="#e2e2e2" stroke="#e2e2e2" stroke-width="1.51"/><path d="M-48,718L-12,742L-32,653Z" fill="#a0a0a0" stroke="#a0a0a0" stroke-width="1.51"/><path d="M-32,653L-12,742L42,685Z" fill="#9d9d9d" stroke="#9d9d9d" stroke-width="1.51"/><path d="M142,753L172,837L192,752Z" fill="#737373" stroke="#737373" stroke-width="1.51"/><path d="M-82,581L-95,656L-32,653Z" fill="#adadad" stroke="#adadad" stroke-width="1.51"/><path d="M-96,288L-95,656L-82,581Z" fill="#bfbfbf" stroke="#bfbfbf" stroke-width="1.51"/><path d="M-12,742L84,799L42,685Z" fill="#929292" stroke="#929292" stroke-width="1.51"/><path d="M172,56L159,21L45,109Z" fill="#d1d1d1" stroke="#d1d1d1" stroke-width="1.51"/><path d="M258,42L159,21L172,56Z" fill="#c1c1c1" stroke="#c1c1c1" stroke-width="1.51"/><path d="M225,-29L159,21L258,42Z" fill="#bfbfbf" stroke="#bfbfbf" stroke-width="1.51"/><path d="M-72,697L-48,718L-32,653Z" fill="#a4a4a4" stroke="#a4a4a4" stroke-width="1.51"/><path d="M-95,656L-72,697L-32,653Z" fill="#a8a8a8" stroke="#a8a8a8" stroke-width="1.51"/><path d="M329,788L422,791L363,660Z" fill="#4e4e4e" stroke="#4e4e4e" stroke-width="1.51"/><path d="M356,825L422,791L329,788Z" fill="#464646" stroke="#464646" stroke-width="1.51"/><path d="M172,837L252,768L192,752Z" fill="#6a6a6a" stroke="#6a6a6a" stroke-width="1.51"/><path d="M84,799L172,837L142,753Z" fill="#787878" stroke="#787878" stroke-width="1.51"/><path d="M271,835L356,825L329,788Z" fill="#4e4e4e" stroke="#4e4e4e" stroke-width="1.51"/><path d="M551,238L577,178L499,150Z" fill="#646464" stroke="#646464" stroke-width="1.51"/><path d="M499,150L458,43L410,146Z" fill="#797979" stroke="#797979" stroke-width="1.51"/><path d="M565,505L577,178L560,438Z" fill="#525252" stroke="#525252" stroke-width="1.51"/><path d="M567,547L577,178L565,505Z" fill="#4e4e4e" stroke="#4e4e4e" stroke-width="1.51"/><path d="M577,178L564,148L499,150Z" fill="#666666" stroke="#666666" stroke-width="1.51"/><path d="M422,791L513,751L442,688Z" fill="#373737" stroke="#373737" stroke-width="1.51"/><path d="M543,629L579,684L567,547Z" fill="#373737" stroke="#373737" stroke-width="1.51"/><path d="M532,829L513,751L422,791Z" fill="#2a2a2a" stroke="#2a2a2a" stroke-width="1.51"/><path d="M567,547L579,684L577,178Z" fill="#474747" stroke="#474747" stroke-width="1.51"/><path d="M513,751L579,684L456,670Z" fill="#303030" stroke="#303030" stroke-width="1.51"/><path d="M393,60L337,-9L334,55Z" fill="#9e9e9e" stroke="#9e9e9e" stroke-width="1.51"/><path d="M562,69L458,43L499,150Z" fill="#707070" stroke="#707070" stroke-width="1.51"/><path d="M358,890L405,830L356,825Z" fill="#3d3d3d" stroke="#3d3d3d" stroke-width="1.51"/><path d="M356,825L405,830L422,791Z" fill="#3c3c3c" stroke="#3c3c3c" stroke-width="1.51"/><path d="M447,-10L337,-9L393,60Z" fill="#949494" stroke="#949494" stroke-width="1.51"/><path d="M159,21L31,23L45,109Z" fill="#dbdbdb" stroke="#dbdbdb" stroke-width="1.51"/><path d="M86,-16L31,23L159,21Z" fill="#dbdbdb" stroke="#dbdbdb" stroke-width="1.51"/><path d="M252,-48L225,-29L258,42Z" fill="#b9b9b9" stroke="#b9b9b9" stroke-width="1.51"/><path d="M31,23L7,29L45,109Z" fill="#e3e3e3" stroke="#e3e3e3" stroke-width="1.51"/><path d="M-6,-30L7,29L31,23Z" fill="#e9e9e9" stroke="#e9e9e9" stroke-width="1.51"/><path d="M84,799L119,871L172,837Z" fill="#737373" stroke="#737373" stroke-width="1.51"/><path d="M223,921L295,903L271,835Z" fill="#4d4d4d" stroke="#4d4d4d" stroke-width="1.51"/><path d="M295,903L358,890L356,825Z" fill="#414141" stroke="#414141" stroke-width="1.51"/><path d="M38,848L119,871L84,799Z" fill="#7a7a7a" stroke="#7a7a7a" stroke-width="1.51"/><path d="M38,848L84,799L-12,742Z" fill="#888888" stroke="#888888" stroke-width="1.51"/><path d="M38,848L-12,742L-17,871Z" fill="#888888" stroke="#888888" stroke-width="1.51"/><path d="M100,-44L86,-16L159,21Z" fill="#d8d8d8" stroke="#d8d8d8" stroke-width="1.51"/><path d="M-82,820L-12,742L-48,718Z" fill="#9a9a9a" stroke="#9a9a9a" stroke-width="1.51"/><path d="M181,-65L100,-44L159,21Z" fill="#d1d1d1" stroke="#d1d1d1" stroke-width="1.51"/><path d="M337,-9L252,-48L258,42Z" fill="#b0b0b0" stroke="#b0b0b0" stroke-width="1.51"/><path d="M349,-65L252,-48L337,-9Z" fill="#ababab" stroke="#ababab" stroke-width="1.51"/><path d="M458,43L447,-10L393,60Z" fill="#868686" stroke="#868686" stroke-width="1.51"/><path d="M562,69L476,12L458,43Z" fill="#747474" stroke="#747474" stroke-width="1.51"/><path d="M577,178L562,69L564,148Z" fill="#696969" stroke="#696969" stroke-width="1.51"/><path d="M564,148L562,69L499,150Z" fill="#696969" stroke="#696969" stroke-width="1.51"/><path d="M472,-95L447,-10L476,12Z" fill="#808080" stroke="#808080" stroke-width="1.51"/><path d="M476,12L447,-10L458,43Z" fill="#7f7f7f" stroke="#7f7f7f" stroke-width="1.51"/><path d="M295,903L356,825L271,835Z" fill="#494949" stroke="#494949" stroke-width="1.51"/><path d="M532,829L581,766L513,751Z" fill="#242424" stroke="#242424" stroke-width="1.51"/><path d="M223,921L271,835L172,837Z" fill="#595959" stroke="#595959" stroke-width="1.51"/><path d="M86,-16L-6,-30L31,23Z" fill="#e6e6e6" stroke="#e6e6e6" stroke-width="1.51"/><path d="M181,-65L159,21L225,-29Z" fill="#c7c7c7" stroke="#c7c7c7" stroke-width="1.51"/><path d="M532,829L422,791L480,874Z" fill="#262626" stroke="#262626" stroke-width="1.51"/><path d="M513,751L581,766L579,684Z" fill="#2b2b2b" stroke="#2b2b2b" stroke-width="1.51"/><path d="M591,-66L581,-14L577,178Z" fill="#707070" stroke="#707070" stroke-width="1.51"/><path d="M245,-103L181,-65L252,-48Z" fill="#c1c1c1" stroke="#c1c1c1" stroke-width="1.51"/><path d="M252,-48L181,-65L225,-29Z" fill="#c1c1c1" stroke="#c1c1c1" stroke-width="1.51"/><path d="M151,927L172,837L119,871Z" fill="#666666" stroke="#666666" stroke-width="1.51"/><path d="M151,927L223,921L172,837Z" fill="#5d5d5d" stroke="#5d5d5d" stroke-width="1.51"/><path d="M404,921L405,830L358,890Z" fill="#343434" stroke="#343434" stroke-width="1.51"/><path d="M447,-10L349,-65L337,-9Z" fill="#9a9a9a" stroke="#9a9a9a" stroke-width="1.51"/><path d="M-72,697L-118,779L-48,718Z" fill="#a2a2a2" stroke="#a2a2a2" stroke-width="1.51"/><path d="M-95,656L-118,779L-72,697Z" fill="#a5a5a5" stroke="#a5a5a5" stroke-width="1.51"/><path d="M-96,288L-118,779L-95,656Z" fill="#b7b7b7" stroke="#b7b7b7" stroke-width="1.51"/><path d="M480,874L422,791L405,830Z" fill="#2e2e2e" stroke="#2e2e2e" stroke-width="1.51"/><path d="M-118,779L-82,820L-48,718Z" fill="#9a9a9a" stroke="#9a9a9a" stroke-width="1.51"/><path d="M68,968L151,927L119,871Z" fill="#686868" stroke="#686868" stroke-width="1.51"/><path d="M25,893L119,871L38,848Z" fill="#777777" stroke="#777777" stroke-width="1.51"/><path d="M404,921L358,890L347,1003Z" fill="#333333" stroke="#333333" stroke-width="1.51"/><path d="M404,921L480,874L405,830Z" fill="#292929" stroke="#292929" stroke-width="1.51"/><path d="M50,-119L-6,-30L100,-44Z" fill="#e6e6e6" stroke="#e6e6e6" stroke-width="1.51"/><path d="M100,-44L-6,-30L86,-16Z" fill="#e3e3e3" stroke="#e3e3e3" stroke-width="1.51"/><path d="M7,29L-97,29L-11,138Z" fill="#eaeaea" stroke="#eaeaea" stroke-width="1.51"/><path d="M-58,151L-97,29L-76,212Z" fill="#eaeaea" stroke="#eaeaea" stroke-width="1.51"/><path d="M-82,820L-17,871L-12,742Z" fill="#8f8f8f" stroke="#8f8f8f" stroke-width="1.51"/><path d="M-17,871L25,893L38,848Z" fill="#7e7e7e" stroke="#7e7e7e" stroke-width="1.51"/><path d="M-86,-7L-97,29L7,29Z" fill="#f1f1f1" stroke="#f1f1f1" stroke-width="1.51"/><path d="M-76,212L-97,29L-96,288Z" fill="#e7e7e7" stroke="#e7e7e7" stroke-width="1.51"/><path d="M-96,288L-97,29L-118,779Z" fill="#d3d3d3" stroke="#d3d3d3" stroke-width="1.51"/><path d="M294,984L295,903L223,921Z" fill="#464646" stroke="#464646" stroke-width="1.51"/><path d="M294,984L358,890L295,903Z" fill="#3f3f3f" stroke="#3f3f3f" stroke-width="1.51"/><path d="M349,-65L245,-103L252,-48Z" fill="#b4b4b4" stroke="#b4b4b4" stroke-width="1.51"/><path d="M181,-65L95,-116L100,-44Z" fill="#dadada" stroke="#dadada" stroke-width="1.51"/><path d="M-46,-63L-86,-7L-6,-30Z" fill="#f2f2f2" stroke="#f2f2f2" stroke-width="1.51"/><path d="M-6,-30L-86,-7L7,29Z" fill="#efefef" stroke="#efefef" stroke-width="1.51"/><path d="M151,927L211,966L223,921Z" fill="#555555" stroke="#555555" stroke-width="1.51"/><path d="M157,998L211,966L151,927Z" fill="#565656" stroke="#565656" stroke-width="1.51"/><path d="M447,-10L394,-111L349,-65Z" fill="#969696" stroke="#969696" stroke-width="1.51"/><path d="M349,-65L394,-111L245,-103Z" fill="#aaaaaa" stroke="#aaaaaa" stroke-width="1.51"/><path d="M562,69L581,-14L476,12Z" fill="#707070" stroke="#707070" stroke-width="1.51"/><path d="M577,178L581,-14L562,69Z" fill="#6c6c6c" stroke="#6c6c6c" stroke-width="1.51"/><path d="M591,-66L577,178L579,684Z" fill="#5e5e5e" stroke="#5e5e5e" stroke-width="1.51"/><path d="M472,-95L394,-111L447,-10Z" fill="#898989" stroke="#898989" stroke-width="1.51"/><path d="M394,-111L95,-116L245,-103Z" fill="#bebebe" stroke="#bebebe" stroke-width="1.51"/><path d="M245,-103L95,-116L181,-65Z" fill="#cecece" stroke="#cecece" stroke-width="1.51"/><path d="M50,-119L-46,-63L-6,-30Z" fill="#eeeeee" stroke="#eeeeee" stroke-width="1.51"/><path d="M211,966L294,984L223,921Z" fill="#494949" stroke="#494949" stroke-width="1.51"/><path d="M434,982L467,938L404,921Z" fill="#202020" stroke="#202020" stroke-width="1.51"/><path d="M404,921L467,938L480,874Z" fill="#202020" stroke="#202020" stroke-width="1.51"/><path d="M480,874L588,940L532,829Z" fill="#171717" stroke="#171717" stroke-width="1.51"/><path d="M532,829L588,940L581,766Z" fill="#1b1b1b" stroke="#1b1b1b" stroke-width="1.51"/><path d="M25,893L68,968L119,871Z" fill="#707070" stroke="#707070" stroke-width="1.51"/><path d="M211,966L157,998L294,984Z" fill="#4a4a4a" stroke="#4a4a4a" stroke-width="1.51"/><path d="M-17,871L-14,933L25,893Z" fill="#7c7c7c" stroke="#7c7c7c" stroke-width="1.51"/><path d="M-76,923L-14,933L-17,871Z" fill="#7f7f7f" stroke="#7f7f7f" stroke-width="1.51"/><path d="M-76,923L-17,871L-82,820Z" fill="#868686" stroke="#868686" stroke-width="1.51"/><path d="M581,-14L472,-95L476,12Z" fill="#767676" stroke="#767676" stroke-width="1.51"/><path d="M-14,933L68,968L25,893Z" fill="#747474" stroke="#747474" stroke-width="1.51"/><path d="M95,-116L50,-119L100,-44Z" fill="#e2e2e2" stroke="#e2e2e2" stroke-width="1.51"/><path d="M394,-111L50,-119L95,-116Z" fill="#cecece" stroke="#cecece" stroke-width="1.51"/><path d="M68,968L157,998L151,927Z" fill="#606060" stroke="#606060" stroke-width="1.51"/><path d="M68,968L-37,978L157,998Z" fill="#686868" stroke="#686868" stroke-width="1.51"/><path d="M-14,933L-37,978L68,968Z" fill="#737373" stroke="#737373" stroke-width="1.51"/><path d="M-118,779L-76,923L-82,820Z" fill="#8f8f8f" stroke="#8f8f8f" stroke-width="1.51"/><path d="M294,984L347,1003L358,890Z" fill="#383838" stroke="#383838" stroke-width="1.51"/><path d="M157,998L347,1003L294,984Z" fill="#404040" stroke="#404040" stroke-width="1.51"/><path d="M347,1003L434,982L404,921Z" fill="#282828" stroke="#282828" stroke-width="1.51"/><path d="M-86,-7L-88,-78L-97,29Z" fill="#f6f6f6" stroke="#f6f6f6" stroke-width="1.51"/><path d="M-46,-63L-88,-78L-86,-7Z" fill="#f6f6f6" stroke="#f6f6f6" stroke-width="1.51"/><path d="M50,-119L-88,-78L-46,-63Z" fill="#f3f3f3" stroke="#f3f3f3" stroke-width="1.51"/><path d="M581,-14L591,-66L472,-95Z" fill="#747474" stroke="#747474" stroke-width="1.51"/><path d="M591,992L591,-66L579,684Z" fill="#404040" stroke="#404040" stroke-width="1.51"/><path d="M-76,923L-37,978L-14,933Z" fill="#7b7b7b" stroke="#7b7b7b" stroke-width="1.51"/><path d="M581,766L591,992L579,684Z" fill="#202020" stroke="#202020" stroke-width="1.51"/><path d="M467,938L588,940L480,874Z" fill="#151515" stroke="#151515" stroke-width="1.51"/><path d="M491,1003L588,940L467,938Z" fill="#0f0f0f" stroke="#0f0f0f" stroke-width="1.51"/><path d="M434,982L491,1003L467,938Z" fill="#181818" stroke="#181818" stroke-width="1.51"/><path d="M347,1003L491,1003L434,982Z" fill="#1e1e1e" stroke="#1e1e1e" stroke-width="1.51"/><path d="M-76,923L-86,995L-37,978Z" fill="#7a7a7a" stroke="#7a7a7a" stroke-width="1.51"/><path d="M-37,978L-86,995L157,998Z" fill="#6e6e6e" stroke="#6e6e6e" stroke-width="1.51"/><path d="M157,998L-86,995L347,1003Z" fill="#595959" stroke="#595959" stroke-width="1.51"/><path d="M-118,779L-86,995L-76,923Z" fill="#858585" stroke="#858585" stroke-width="1.51"/><path d="M491,1003L591,992L588,940Z" fill="#090909" stroke="#090909" stroke-width="1.51"/><path d="M588,940L591,992L581,766Z" fill="#151515" stroke="#151515" stroke-width="1.51"/></svg>